<?xml version="1.0" encoding="utf-8"?>
<!DOCTYPE svg PUBLIC "-//W3C//DTD SVG 1.1//EN" "http://www.w3.org/Graphics/SVG/1.1/DTD/svg11.dtd">
<svg version="1.1" id="root" xmlns="http://www.w3.org/2000/svg" xmlns:xlink="http://www.w3.org/1999/xlink" 
    unselectable="on" style="-webkit-user-select: none;" width="1200px" height="1000px"
    onload="init()">

    <script type="text/javascript" xlink:href="Rail Baron.js"></script>

    <style>
    	<![CDATA[
    	@font-face {

			font-family: 'Segoe';

			src: url('Segoe.ttf');

		}
		]]>
    </style> 

    <g id="buttons">
    </g>

    <g id="map" visibility="hidden">
      <rect width="1200" height="1000" fill="#FFFFFF" />
      <text x="250" y="40" font-size="30" font-family="Segoe">Choose a region</text>
      <g id="USA" fill="#d3d3d3" stroke="#000000" stroke-width="0.75" visibility="hidden">
        <path id="SE" class="mapRegion" d="m 725.1875,421.25 -1.28125,1.3125 -0.96875,1.4375 1.125,3.09375 0,4.6875 -0.5,5 -0.3125,5.65625 -2.25,3.875 -3.09375,3.40625 -2.25,1.625 -2.09375,-0.5 -1.3125,1.46875 -2.25,3.375 -0.96875,1.3125 0,2.40625 1.125,1.78125 -0.5,1.625 -1.75,0.96875 -0.5,-1.78125 -1.28125,-1.125 -1.3125,0.625 -0.96875,3.90625 -0.15625,5 -1.625,1.46875 -0.15625,2.75 -1.9375,0.78125 -1.65625,0.0625 -0.46875,-0.4375 -2.65625,-2.09375 -2.03125,-1.0625 -0.65625,-2.8125 -1.875,0.6875 -2.625,1.4375 -1.6875,2.0625 -2.5625,-0.21875 -5.25,-0.59375 -2.59375,1.28125 -1.625,0.15625 -2.0625,-2.21875 -5.125,0 -2.0625,-4.375 -3.34375,-1.40625 -2.28125,0.71875 -4.1875,0.125 -0.5625,3 1.125,1.46875 0.21875,1.5625 -2.46875,1.6875 -3.78125,1.65625 -3.43852,0.79924 3.34477,77.79451 6.75,55.25 -44.625,2.90625 -0.15625,14.0625 2.75,18.75 1.46875,14.34375 2.75,0 0.65625,0.15625 1.28125,-2.75 1.46875,-4.375 2.25,0.65625 3.09375,5.96875 0,0.96875 -2.75,1.9375 2.75,0.34375 5.5,-2.5625 0.0312,-0.0312 2.875,-0.5 5.96875,-2.09375 5.96875,-0.5 4.375,-0.625 7.59375,1.78125 8.09375,3.875 1.625,1.4375 2.90625,1.125 1.625,1.96875 0.3125,2.75 3.21875,-1.3125 3.875,0 3.5625,-1.9375 3.71875,-3.5625 3.09375,0.15625 0.46875,-1.125 -0.8125,-0.96875 0.15625,-1.9375 4.0625,-0.8125 2.59375,0 2.90625,1.46875 4.1875,1.4375 2.4375,3.71875 2.75,0.96875 1.125,3.40625 3.40625,1.625 1.59375,2.5625 1.9375,0.65625 5.1875,1.3125 1.28125,3.0625 3.09375,3.71875 0,9.53125 -1.46875,4.6875 0.3125,2.75 1.3125,4.84375 1.78125,4.0625 0.78125,-0.5 1.46875,-4.53125 -2.59375,-0.96875 -0.3125,-0.65625 1.625,-0.625 4.5,0.96875 0.1875,1.625 -3.25,5.46875 -2.09375,2.4375 3.5625,3.71875 2.59375,3.0625 2.90625,5.34375 2.90625,3.875 2.09375,5.03125 1.78125,0.3125 1.625,-2.09375 1.78125,1.125 2.5625,4.03125 0.65625,3.5625 3.0625,4.375 0.8125,-1.3125 3.875,0.34375 3.5625,2.25 3.40625,5.1875 0.8125,3.375 0.3125,2.90625 1.125,0.96875 1.3125,0.5 2.40625,-0.96875 1.46875,-1.625 3.875,-0.15625 3.0625,-1.46875 2.75,-3.21875 -0.46875,-1.9375 -0.34375,-2.4375 0.65625,-1.9375 -0.3125,-1.9375 2.40625,-1.28125 0.34375,-3.40625 -0.65625,-1.78125 -0.5,-11.96875 -1.28125,-7.59375 -4.53125,-8.25 -3.5625,-5.8125 -2.5625,-5.34375 -2.9375,-2.90625 -2.90625,-7.4375 0.8125,-1.28125 1.125,-1.28125 -1.59375,-2.9375 -4.0625,-3.71875 -4.84375,-5.46875 -3.71875,-6.3125 -5.34375,-9.375 -3.71875,-9.75 -2.1875,-7.09375 0,-0.0312 -0.78125,-6.28125 2.25,-10 1.46875,-4.21875 -0.5,-2.59375 3.34375,-6.21875 -0.5,-1.375 -1.9375,0.71875 -2.5625,-1.28125 -0.0625,-0.25 2.5625,1.3125 1.78125,-0.96875 2.09375,-1.3125 5,-5.5 -0.96875,-3.21875 2.90625,-0.15625 3.5625,-3.40625 1.625,-0.8125 2.25,-3.375 2.75,-2.75 2.09375,-3.5625 L 773.25,583 l 1.125,-2.75 1.625,-0.8125 0.5,-6.3125 2.5625,-6.125 5.4375,-5.46875 5.25,-1.28125 4.6875,-0.5 0.5,-2.4375 1.9375,-6.46875 3.40625,-4.6875 6.46875,-5.3125 5.15625,-2.4375 2.75,-0.65625 1.125,0.5 1.3125,0 3.0625,-4.84375 1.9375,-3.5625 -1.28125,0.46875 -2.28125,2.28125 -0.625,-1.625 -4.21875,0 1.9375,-6.3125 -0.8125,-1.28125 -1.9375,0 0,-0.96875 -0.3125,-1.28125 1.625,1.28125 1.4375,0.15625 2.4375,0.34375 3.71875,-1.625 1.28125,-2.90625 0.65625,-2.125 2.59375,-1.28125 0.3125,-4.1875 -0.8125,-0.65625 2.4375,-0.15625 -0.65625,-2.28125 -2.4375,-2.40625 -3.53125,-6.46875 -2.09375,-4.9375 -0.0312,0 -3.59375,-5.9375 -5.78125,1.6875 -1.59375,-1.5 2.5625,-1.375 -0.5,-2.53125 -1.75,-1.78125 -0.125,-1.40625 -2.28125,-1.5625 -0.0937,-1.59375 2.6875,0.0937 0.21875,-1.40625 -1.21875,-0.78125 0.46875,-1.9375 -1.375,-1.09375 0.4375,-4.6875 -0.875,-1.21875 -3.1875,-0.375 -0.71875,-3.09375 -1.9375,-0.3125 -3.0625,-0.96875 -4.4375,-0.0312 -5,-1.28125 -0.59375,-1.84375 -0.0937,-2.0625 1.9375,-2.59375 0.65625,-3.65625 -1.65625,-2.03125 -2.125,-1.1875 -5.78125,-1.3125 -0.0625,-2.9375 -3.5,-1.53125 0.0312,-0.21875 -1.375,-1.3125 -1.9375,-1.78125 -3.65625,-1.8125 -1.3125,-1 -1.84375,0.46875 -2,1.46875 -2.59375,2.09375 -2.90625,0.3125 -1.4375,-0.625 -1.78125,2.5625 -1.46875,1.46875 -2.53125,0.625 -2.25,3.0625 -2.125,2.5625 -1.09375,-6.03125 -1.125,-4.9375 -12.40625,1.8125 L 728.65625,441.09375 z m 104.03125,87.5 -0.71875,0.25 0.625,1.84375 1.46875,2.34375 0.625,6.15625 -0.15625,2 -1.53125,0.65625 -3.15625,2.59375 -2.5625,2.5 1.03125,0.15625 1.125,-1.21875 2.84375,-2.40625 3.40625,-1.53125 L 832.375,518.6875 831.96875,514.25 z m -42.15625,236.5 -0.71875,0.5 -0.96875,2.8125 -1.46875,4.625 -3.25,5.25 -4.34375,4.1875 -3.40625,1.9375 -2.5,1.53125 1.21875,1.0625 2.75,-2.09375 5.3125,-4.21875 3.71875,-3.875 2.53125,-6.625 L 786.90625,748.65625 z m -22.625,21.03125 -2.34375,1.59375 -1.46875,2.34375 -1.28125,0.25 -2.4375,0.65625 0.875,0.875 2.34375,-1.21875 4.21875,-1.4375 3.46875,-1.21875 -0.40625,-1.0625 L 765.71875,766.75 Z" transform="translate(15.455002,-199.57106)"/>
        <path id="NE" class="mapRegion" d="m 875.875,237.65625 -1.78125,1.78125 -4.0625,2.90625 0,0.96875 -0.8125,0.8125 -2.71875,-0.65625 -1.3125,-2.25 0,-1.125 -1.28125,-0.15625 -1.3125,0 -2.09375,4.1875 -2.90625,8.90625 -1.78125,4.84375 0.15625,4.84375 0.15625,1.46875 -0.78125,2.75 -0.8125,0.96875 0,5.96875 1.9375,2.4375 -1.46875,4.03125 -2.59375,4.6875 -1.28125,4.5 0,2.59375 -1.53125,-0.4375 -1.40625,0.125 0,-0.0312 -0.875,0 -0.65625,1.625 -0.65625,-0.5 -0.96875,-0.96875 -1.4375,1.9375 -0.0625,5.03125 0,0.15625 -26.40625,6.71875 -7.1875,1.96875 -4.53125,1.46875 -3.21875,-0.1875 -5.5,1.3125 -3.09375,1.25 -2.40625,1.8125 -2.09375,2.4375 -2.75,3.71875 -2.90625,4.5 -1.46875,2.9375 -0.625,0.78125 -5.84375,5.5 0.15625,2.59375 0.8125,1.125 1.78125,0.8125 1.78125,0 0,1.46875 -1.125,2.09375 0.3125,1.46875 1.46875,2.09375 -0.15625,2.25 -1.9375,1.125 -2.125,0 -1.59375,1.9375 -1.78125,3.25 -2.125,1.78125 -5.15625,0.46875 -2.59375,1.15625 -2.09375,1.28125 -1.625,-0.15625 -1.9375,-1.3125 -6.3125,0.1875 -3.21875,0.46875 -4.03125,1.28125 -4.375,1.46875 -2.90625,1.78125 1.9375,6.15625 1.78125,0.15625 1.28125,3.0625 0.15625,0.96875 -1.125,0.96875 -2.09375,2.75 -0.5,1.625 -1.9375,1.78125 -1.78125,1.125 -0.96875,1.625 -1.28125,1.125 -1.4375,1.125 0,0.0312 -5.34375,5.03125 -1.28125,0.46875 -4.21875,3 2.9375,19.15625 2.46875,9.71875 3.5625,19.28125 3.28125,-0.65625 11.9375,-1.5 1.625,-0.28125 1.125,5 0.96875,5.65625 0.34375,-0.3125 2.09375,-2.4375 2.25,-2.59375 2.4375,-0.625 1.46875,-1.46875 1.75,-2.5625 1.3125,0.625 2.90625,-0.3125 2.59375,-2.09375 2,-1.46875 1.84375,-0.46875 1.65625,1.125 2.90625,1.4375 1.9375,1.78125 1.21875,1.5625 4.125,1.6875 0,2.90625 5.46875,1.28125 1.15625,0.5625 0,0 1.21875,0.6875 1.8125,1.75 -0.78125,3.96875 -1.78125,2.59375 0,2.09375 0.65625,1.78125 5.0625,1.34375 4.3125,-0.0625 3.0625,0.96875 2.09375,0.34375 0.96875,-2.125 -1.4375,-2.09375 0,-1.78125 -2.4375,-2.09375 -2.09375,-5.5 1.28125,-5.34375 -0.15625,-2.09375 -1.28125,-1.28125 c 0,0 1.4375,-1.63461 1.4375,-2.28125 0,-0.64665 0.5,-2.09375 0.5,-2.09375 l 1.9375,-1.28125 1.9375,-1.625 0.5,0.96875 -1.46875,1.625 -1.28125,3.71875 0.3125,1.125 1.78125,0.3125 0.46875,5.5 -2.09375,0.96875 0.3125,3.5625 0.5,-0.15625 1.125,-1.9375 1.625,1.78125 -1.625,1.28125 -0.3125,3.40625 2.59375,3.375 3.875,0.5 1.625,-0.8125 3.21875,4.1875 1.28125,0.5 0.15625,1.9375 -0.78125,3.125 -1.5625,4.15625 -0.46875,5.46875 1.46875,4.625 2.1875,-1.90625 1.8125,-4.96875 -0.46875,-3.40625 0.4375,-4.59375 2.90625,-3.75 0.78125,-3.21875 0.25,-0.25 2.03125,-4 -0.4375,-4.90625 -0.0312,0 -2.25,-7.375 -0.96875,0.46875 -3.5625,-2.40625 L 815.75,438 l -1.9375,-3.5625 0.21875,0.15625 4.84375,2.25 4.0625,0.65625 0.15625,1.46875 -0.8125,0.96875 0.3125,2.75 0.8125,0 2.09375,-2.4375 0.8125,-4.84375 2.75,-4.0625 3.0625,-6.4375 1.15625,-5.5 -0.65625,-1.15625 -0.15625,-9.375 -1.625,-3.375 -1.125,0.8125 -2.75,0.3125 -0.5,-0.5 1.15625,-0.96875 2.09375,-1.9375 0.0625,-0.78125 1.1875,0.53125 4.03125,-1.125 5.8125,-1.9375 2.59375,-0.96875 7.125,-5.34375 3.875,-2.90625 3.375,-3.5625 -4.1875,-1.625 -1.28125,1.46875 -2.9375,2.75 -7.90625,3.875 -2.28125,-0.15625 -1.59375,-0.65625 -1.125,0.65625 -2.28125,2.5625 -1.4375,1.3125 -1.3125,0.3125 -0.3125,-1.28125 1.9375,-1.78125 -0.8125,-1.6875 0.0625,-0.0937 4.28125,-3.90625 3.5625,-3.21875 1.9375,-2.09375 0.8125,0.625 2.75,-1.4375 5.15625,-1.125 7.8125,-3.1875 0,0.0312 2.90625,-0.96875 2.40625,-1.9375 1.15625,-1.78125 1.28125,0.15625 3,-1.625 0.0625,0.0625 2.09375,-1 -0.5,-2.28125 0.8125,-1.4375 2.90625,-1.46875 0.8125,3.0625 -0.5,1.78125 -2.40625,1.46875 0,0.96875 1.9375,-1.46875 3.875,-4.53125 3.875,-1.9375 4.21875,-1.4375 -0.34375,-2.4375 -0.96875,-2.90625 -1.9375,-2.4375 -1.78125,-0.78125 -2.09375,0.15625 -0.46875,0.46875 0.96875,1.3125 1.4375,-0.8125 2.09375,1.625 0.8125,2.71875 -1.78125,1.78125 -2.25,0.96875 -3.5625,-0.46875 -3.875,-6 -2.25,-2.5625 -1.78125,0 -1.15625,0.8125 -1.9375,-2.59375 0.34375,-1.46875 2.40625,-5.15625 -2.875,-4.40625 -0.21875,0.0937 0.875,-1.09375 1,-2.96875 0.0937,0.0625 1.125,-6.25 0.15625,-4.375 1.4375,-1.28125 -0.96875,-3.25 3.09375,-3.53125 1.59375,1.4375 1.3125,-0.46875 5.3125,-3.09375 0.34375,-2.90625 2.90625,-0.46875 1.625,-2.59375 -0.1875,-1.625 -0.3125,-3.0625 0.8125,-1.28125 -0.3125,-1.15625 -1.3125,-1.4375 2.09375,-1.3125 1.78125,3.25 1.46875,-0.3125 0.3125,1.28125 0,1.625 1.9375,0.15625 0.5,-2.75 0.46875,-0.65625 -1.59375,-1.4375 0.96875,-1.46875 2.40625,-1.4375 0.96875,-1.46875 1.78125,-0.15625 c 0,0 0.32211,2.09375 0.96875,2.09375 l 1.3125,0 4.84375,-5.5 3.375,-3.0625 1.96875,-0.65625 2.09375,-4.6875 0,-1.9375 -2.28125,-3.71875 -1.9375,-2.09375 -2.75,0.15625 0.5,1.125 -0.15625,0.5 -0.8125,0 -2.90625,-2.28125 -0.15625,-4.84375 -0.8125,-1.9375 -6,0 L 885.25,241.21875 883.3125,240.25 877.3125,237.8125 z m 20.6875,62 -2.03125,0.71875 -1.375,2.28125 1.78125,1.84375 c 0,0 1.28125,0.0733 1.28125,-0.25 0,-0.32332 0.25,-2 0.25,-2 L 897.375,301.4375 Z M 888,307 l -1.5625,1.5625 1.78125,2.8125 L 889.9375,310.5 889.375,308.0625 z m -1.1875,63.4375 -0.46875,1.6875 -2.1875,0.6875 -0.4375,0.59375 3.875,-0.125 1.25,-0.46875 L 887.8125,370.53125 z m -9.71875,0.5625 -2.3125,2.625 1.15625,0.90625 L 878.125,373.5 880.5,372.46875 878.6875,371 z m -66.875,89.53125 L 808.375,461 l 1.125,2.53125 0.15625,1.78125 1.125,1.84375 c 0,0 0.90625,-0.89543 0.90625,-1.21875 C 811.6875,465.61418 810.96875,462.875 810.96875,462.875 Z" transform="translate(15.455002,-199.57106)"/>
        <path id="NC" class="mapRegion" d="m 577.8125,274.3125 -2.28125,0.5625 -5.375,3.90625 -2.15625,0.78125 -1.84375,2.0625 1.59375,1.15625 2.0625,-0.9375 3.3125,-1.9375 L 578.28125,274.78125 z m 11.15625,14.21875 -4.6875,0.5 -4.375,2.40625 -2.25,2.28125 -1.3125,1.78125 -1.78125,0.8125 -1.9375,2.90625 -0.15625,1.28125 -4.34375,2.09375 -2.4375,1.9375 -5.96875,1 -0.65625,0.625 0,0.96875 -3.5625,2.28125 -2.75,0.8125 -0.71875,0.5625 0,0.0312 -0.75,0.5625 -1.21875,-0.1875 -0.625,-1.125 -1.34375,0.3125 -1.125,0.15625 -1.78125,0.96875 -0.96875,-0.65625 0.625,-1.9375 1.9375,-3.0625 1.15625,-1.125 L 546,303.25 l -2.125,0.8125 -2.90625,1.9375 -7.4375,3.21875 -2.90625,0.65625 -2.90625,-0.46875 -0.96875,-0.875 -2.125,2.8125 -0.21875,2.75 0,8.46875 -1.15625,1.59375 -5.25,3.875 -2.28125,5.96875 0.4375,0.21875 2.53125,2.0625 0.6875,3.1875 -1.84375,3.21875 0,3.875 0.46875,6.625 2.96875,2.96875 3.4375,0 1.8125,3.21875 3.4375,0.4375 3.875,5.71875 7.09375,4.125 2.0625,2.75 0.90625,7.40625 0.6875,3.3125 2.28125,1.625 0.25,1.375 -2.0625,3.40625 0.21875,3.21875 2.5,3.875 2.53125,1.15625 2.96875,0.4375 1.25,1.28125 -0.46875,0.0312 0.25,2.375 2.28125,0.6875 0.90625,1.15625 0.46875,1.8125 3.875,3.4375 0.6875,2.28125 -0.6875,3.4375 -1.84375,3.65625 -0.6875,2.53125 -2.28125,1.8125 -1.8125,0.6875 -5.25,1.375 -0.6875,1.8125 -0.6875,2.0625 0.6875,1.375 1.8125,1.59375 -0.21875,4.125 -1.84375,1.59375 -0.6875,1.625 0,2.71875 -1.8125,0.46875 -1.59375,1.15625 -0.25,1.34375 0.25,2.0625 -1.625,0.96875 -2.53125,-3.09375 -1.15625,-2.28125 -0.4375,90.53125 20.78125,-0.78125 11.65625,-0.25 2.1875,3.4375 -0.6875,3.3125 -3.09375,2.40625 -0.5625,1.8125 5.375,0.46875 3.90625,-0.6875 1.6875,-5.5 0.65625,-5.84375 c 41.02502,-13.7898 54.71736,-35.00172 65.37485,-49.7812 l 0.59375,-4.875 3.21875,-0.5625 3.53125,-1.53125 2.53125,-1.625 -0.0937,-1.375 -1.25,-1.78125 0.375,-2.25 0.0625,-0.65625 4.125,-0.125 2.40625,-0.8125 3.375,1.5 2.0625,4.375 5.15625,-0.0312 1.875,2.125 1.78125,-0.0625 2.53125,-1.34375 2.5,0.375 5.4375,0.46875 1.71875,-2.125 2.34375,-1.3125 2.0625,-0.65625 0.65625,2.75 1.78125,0.96875 3.46875,2.34375 2.1875,-0.0937 1.3125,-0.5 0.1875,-2.75 1.59375,-1.46875 0.0937,-4.78125 1.03125,-4.09375 1.3125,-0.625 1.3125,1.15625 0.53125,1.6875 1.71875,-1.03125 0.4375,-1.46875 -1.125,-1.90625 0.0937,-2.3125 0.75,-1.0625 2.125,-3.3125 1.0625,-1.53125 2.09375,0.46875 2.28125,-1.59375 3.0625,-3.40625 2.78125,-4.0625 0.3125,-5.0625 0.46875,-5.03125 -0.15625,-5.28125 -0.96875,-2.90625 0.34375,-1.1875 1.8125,-1.75 -2.28125,-9.0625 -2.90625,-19.34375 -6.09375,4.03125 -3.875,2.28125 -3.40625,3.71875 -4.03125,3.875 -3.25,0.8125 -2.90625,0.46875 -5.5,2.59375 -2.09375,0.15625 -3.40625,-3.0625 -5.15625,0.65625 -2.59375,-1.46875 -2.375,-1.34375 -4.90625,0.71875 0.15625,-1.40625 2.09375,-3.71875 2,-1.75 -0.21875,-5.03125 1.59375,-1.59375 L 677,392.5 l 0.21875,-3.5625 1.5625,-3.03125 1.03125,0.59375 0.15625,0.65625 0.8125,0.15625 1.9375,-0.96875 -0.3125,-9.53125 -3.25,-8.25 -2.25,-9.0625 -2.4375,-3.21875 -2.5625,-1.78125 -1.625,1.125 -3.875,1.78125 -1.9375,5 -2.75,3.71875 -1.125,0.65625 -1.46875,-0.65625 c 0,0 -2.59916,-1.44711 -2.4375,-2.09375 0.16166,-0.64664 0.5,-5 0.5,-5 l 3.40625,-1.3125 0.78125,-3.375 0.65625,-2.59375 2.4375,-1.625 -0.34375,-10 -1.59375,-2.28125 -1.3125,-0.8125 -0.8125,-2.09375 0.8125,-0.8125 1.625,0.3125 0.15625,-1.59375 -2.40625,-2.28125 -1.3125,-2.5625 -2.59375,0 -4.5,-1.46875 -5.5,-3.40625 -2.75,0 -0.65625,0.65625 -0.96875,-0.46875 -3.0625,-2.28125 -2.90625,1.78125 -2.90625,2.25 0.3125,3.5625 0.96875,0.34375 2.09375,0.46875 0.5,0.8125 -2.59375,0.8125 -2.59375,0.3125 -1.4375,1.78125 -0.34375,2.09375 0.34375,1.625 0.3125,5.5 -3.5625,2.09375 -0.65625,-0.15625 0,-4.1875 1.3125,-2.4375 0.625,-2.4375 -0.78125,-0.8125 -1.9375,0.8125 -1,4.21875 -2.71875,1.125 -1.78125,1.9375 -0.1875,0.96875 0.65625,0.8125 -0.65625,2.59375 -2.25,0.46875 0,1.15625 0.8125,2.40625 -1.125,6.15625 -1.625,4.03125 0.65625,4.6875 0.46875,1.125 -0.8125,2.4375 -0.3125,0.8125 -0.3125,2.75 3.53125,5.96875 2.9375,6.46875 1.4375,4.84375 -0.8125,4.6875 -0.96875,6 -2.40625,5.15625 -0.34375,2.75 -3.25,3.09375 -2.71875,1.53125 -2.09375,1.9375 -1.125,0.3125 -1.46875,-0.96875 -3.0625,-0.875 -0.25,0.1875 -0.25,-0.9375 -0.8125,-2.5625 -1.3125,-3.71875 -1.59375,-1.78125 -1.46875,-2.59375 -0.21875,-5.5 0.0625,0 -0.0937,-3.15625 -1.15625,-4.53125 -0.65625,-6.125 -1.125,-2.4375 0.96875,-3.0625 0.8125,-2.90625 1.4375,-2.59375 -0.625,-3.40625 -0.65625,-3.5625 0.4687,-1.78125 1.9375,-2.40625 0.1875,-2.75 -0.8125,-1.28125 0.625,-2.59375 -0.4375,-4.1875 2.75,-5.65625 2.90625,-6.78125 0.15625,-2.25 L 606,334.5 l -0.8125,0.46875 -4.21875,6.3125 -2.71875,4.03125 -1.96875,1.78125 -0.78125,2.25 -1.96875,0.8125 -1.125,1.9375 -1.46875,-0.3125 -0.15625,-1.78125 1.28125,-2.40625 2.125,-4.6875 1.78125,-1.625 0.9375,-2.28125 0.0312,0.0312 3.1875,-7 0.96875,-4.03125 1.9375,-4.375 0.8125,-0.15625 1.125,1.59375 0.65625,0 4.53125,-2.40625 1.4375,1.625 0.5,0.15625 1.28125,-1.125 1.125,-3.09375 2.4375,-0.8125 6.9375,-0.625 1.9375,-2.59375 5.1875,-0.15625 5.8125,1.28125 1.78125,0 3.25,-1.4375 2.25,0.15625 2.09375,-0.65625 3.71875,0.5 0.8125,0.3125 1.28125,-0.3125 -1.28125,-0.96875 -1.28125,-0.65625 -3.25,-3.0625 0,-6.96875 -1.4375,-0.46875 -1.15625,1.125 -6.125,1.625 -1.9375,0.46875 -2.90625,-0.8125 -0.5,-0.3125 0,-5.65625 -1.4375,-0.15625 -2.59375,1.28125 -4.53125,1.9375 -6.625,0.3125 -3.40625,1.15625 -4.03125,3.53125 -1.625,0.96875 -1.125,0 -1.28125,0.8125 -1.625,-0.46875 -1.625,-1.3125 -1.4375,0.96875 -3.90625,0.1875 -2.75,-2.75 -1.4375,-3.09375 -1.46875,-1.125 -3.21875,-0.96875 -2.28125,0 -1.28125,-1.28125 -3.5625,2.90625 -0.96875,1.125 -0.8125,-0.46875 0.34375,-2.59375 2.40625,-3.25 0.5,-2.40625 2.25,-0.8125 1.46875,-3.0625 3.71875,-0.96875 L 590.09375,289.6875 Z M 655.5,311.75 l -2.1875,0.21875 -1.625,0.1875 -0.3125,1.125 0.96875,0.46875 0.65625,2.5 3.21875,0.1875 1.28125,-1.21875 c 0,0 -0.0829,-1.46333 -0.40625,-1.625 C 656.77042,313.43209 655.5,311.75 655.5,311.75 Z" transform="translate(15.455002,-199.57106)"/>
        <path id="SC" class="mapRegion" d="m 662.2675,276.99144 c -13.81139,26.80545 -51.13394,49.27185 -65.09375,53.4375 l 0,0 -0.0937,0 -1.40625,7.0625 -1.6875,5.46875 -0.1875,0.15625 0.0312,-0.0625 -4,0.71875 -5.09375,-0.625 0.40625,-1.625 3,-2.5625 0.9375,-3.65625 -1.84375,-2.96875 -78.40625,2.53125 1.59375,6.84375 0,8.21875 1.375,11 0.21875,37.8125 0.78125,0.6875 -0.9375,-0.78125 -1.5,-0.78125 -2.875,-0.8125 -3.5,-2.03125 -1.9375,-2.40625 -1.875,-0.40625 -1.53125,2.03125 -4.0625,0 -0.84375,-1.625 -1.09375,-0.0312 -2.8125,2.09375 -1.8125,-0.9375 -4.4375,-0.0312 -0.71875,2.5 -1.84375,1 -3.40625,-1.21875 -3.34375,-1.125 -3.9375,-0.65625 -1.21875,-2.0625 -0.90625,-0.0937 -0.34375,0 -1.5,4.1875 -1.59375,0.78125 -6.3125,-2.125 -0.9375,-2.4375 -2.25,-0.0312 -2.125,-0.625 -2.3125,2.0625 -2.21875,-0.78125 0.15625,-1.96875 -1.0625,-0.34375 -2.25,-3.21875 -3.71875,-0.59375 -2.125,2.0625 -2.375,-2.09375 -3.9375,-0.5 -2.9375,-1.21875 -4.09375,-0.0937 0.375,-3.96875 -1.15625,-0.40625 -1.65625,-0.96875 0,1.46875 -2.125,-0.0625 -1.125,-1.8125 -0.375,1.84375 -1.1875,0.5625 -2,-1.46875 -4.34375,-3.8125 -0.0625,-2.09375 0.3125,-18.125 2.3125,-23.46875 -31.09375,-1.15625 -21.46875,-1 0,-0.0937 -1.375,-0.0312 -1.59375,18.75 -0.15625,2.40625 -12.71875,139.65625 2.4375,-2.40625 4.34375,-6.15625 0.96875,-3.71875 2.28125,-3.21875 3.5625,-1.46875 4.5,-1.78125 3.09375,2.28125 7.4375,0.625 6.78125,1.125 2.59375,2.125 0,1.125 2.59375,3.0625 5.96875,5.34375 0.15625,1.4375 1.78125,1.96875 0.8125,4.1875 5.34375,12.28125 -0.1875,1.9375 4.21875,2.59375 3.5625,6.625 3.375,4.375 3.25,1.28125 1.625,2.28125 -1.3125,4.34375 0.65625,0.96875 1.28125,0.65625 -0.3125,3.40625 -0.65625,0.625 0.65625,2.28125 3.21875,1.9375 1.3125,6.46875 2.09375,3.875 7.59375,3.40625 5.1875,1.125 4.1875,3.0625 3.25,0.65625 1.28125,-0.5 5.5,1.125 5.65625,3.90625 3.0625,-1.9375 0.96875,-1.4691 -1.78125,-2.75 -0.96875,-6.15625 -1.78125,-6.9375 -0.78125,-2.4375 0.78125,-4.5 1.15625,-3.90625 1.28125,-4.5 1.46875,-5.5 -2.28125,-1.9375 0.96875,-1.9375 4.0625,-0.34375 3.875,-5.5 3.375,-0.625 5.84375,-3.5625 1.75,-1.46875 6.3125,-3.375 5.65625,-2.4375 5.34375,-3.21875 2.75,-2.125 5.65625,-5.3125 1.28125,-0.8125 2.125,-1.46875 2.5625,-1.9375 0.96875,-1.9375 9.875,-4.53125 5.65625,-1.59375 0,-0.0625 4.59375,-1.5 12.125,0.21875 10.34375,3.5625 6.46875,1.125 3.71875,-1.46875 3.21875,1.15625 3.25,0.96875 0.78125,-2.125 -3.21875,-1.125 -2.59375,0.5 -2.75,-1.625 c 0,0 0.16586,-1.27584 0.8125,-1.4375 0.64664,-0.16166 3.0625,-1 3.0625,-1 l 1.78125,1.46875 1.78125,-0.96875 3.25,0.65625 1.4375,2.40625 0.34375,2.28125 4.5,0.3125 1.78125,1.78125 -0.8125,1.625 -1.28125,0.8125 1.625,1.59375 8.40625,3.5625 3.5625,-1.28125 0.96875,-2.4375 2.5625,-0.65625 1.78125,-1.4375 1.3125,0.96875 0.8125,2.90625 -2.28125,0.8125 0.65625,0.65625 3.375,-1.3125 2.28125,-3.375 0.8125,-0.5 -2.09375,-0.3125 0.78125,-1.625 -0.15625,-1.46875 2.09375,-0.46875 1.15625,-1.3125 0.625,0.8125 c 0,0 -0.15206,3.09375 0.65625,3.09375 0.8083,0 4.21875,0.625 4.21875,0.625 l 4.03125,1.9375 0.96875,1.46875 2.90625,0 1.125,0.96875 2.28125,-3.0625 0,-1.46875 -1.3125,0 -3.375,-2.75 -5.84375,-0.8125 -3.21875,-2.25 1.125,-2.75 2.28125,0.3125 0.15625,-0.625 -1.78125,-0.96875 0,-0.5 3.21875,0 1.78125,-3.0625 -1.28125,-1.9375 -0.34375,-2.75 -1.4375,0.15625 -1.9375,2.09375 -0.65625,2.59375 -3.0625,-0.65625 -0.96875,-1.78125 1.78125,-1.9375 1.90625,-3.4375 0.125,0.0312 1.09375,-0.78125 2.59375,-4.21875 1.78125,0.8125 6.78125,-1.9375 2.09375,0.34375 1.46875,0.78125 5.15625,0 0.25,-1.25 -1.46875,-13.375 -2.75,-18.75 0.15625,-14.0625 L 672.14026,410.77357 Z"/>
        <path id="SW" class="mapRegion" d="m 35.937823,148.57579 -1.5,4.75 -0.15625,7.4375 -5.1875,11.78125 -3.0625,2.59375 -0.34375,1.125 -1.75,0.8125 -1.46875,4.21875 -0.8125,3.21875 2.75,4.21875 1.625,4.1875 1.125,3.5625 -0.3125,6.46875 -1.78125,3.0625 -0.65625,5.8125 -0.96875,3.71875 1.78125,3.875 2.75,4.53125 2.25,4.84375 1.3125,4.0625 -0.34375,3.21875 -0.3125,0.5 0,2.09375 5.65625,6.3125 -0.46875,2.40625 -0.65625,2.28125 -0.65625,1.9375 0.15625,8.25 2.125,3.71875 1.9375,2.5625 2.75,0.5 0.96875,2.75 -1.15625,3.5625 -2.09375,1.59375 -1.125,0 -0.8125,3.90625 0.5,2.90625 3.21875,4.34375 1.625,5.34375 1.4375,4.6875 1.3125,3.0625 3.375,5.84375 1.46875,2.5625 0.46875,2.9375 1.625,0.96875 0,2.40625 -0.8125,1.9375 -1.78125,7.125 -0.46875,1.9375 2.40625,2.75 4.21875,0.46875 4.53125,1.78125 3.875,2.125 2.90625,0 2.90625,3.0625 2.59375,4.84375 1.125,2.25 3.875,2.125 4.875,0.8125 1.4375,2.09375 0.65625,3.21875 -1.46875,0.65625 0.34375,0.96875 3.21875,0.8125 2.75,0.15625 3.15625,-1.6875 3.875,4.21875 0.8125,2.25 2.593747,4.21875 0.3125,3.21875 0,9.375 0.5,1.78125 10,1.4375 19.75,2.75 13.84375,1.375 1.34375,-0.15625 0.0625,0.28125 -1.1875,0.28125 -2.625,2.15625 -0.34375,1.46875 0.5,0.96875 18.90625,10.65625 12.125,7.625 14.71875,8.5625 16.8125,10.03125 12.28125,2.40625 24.875,2.71875 0.0625,0 15.40625,2 1.28125,-10.03125 29.21875,2.84375 0,-0.0937 1.9375,0.5 2.59375,2.90625 1.46875,4.34375 4.6875,2.28125 1.28125,3.21875 7.125,7.9375 1.28125,1.59375 5,2.125 1.15625,2.09375 1.59375,0.96875 0.5,2.75 3.21875,6.46875 0,8.0625 2.28125,4.6875 7.4375,7.78125 5.15625,2.09375 1.78125,1.9375 0,0.65625 3.875,2.25 1.9375,0.65625 1.78125,1.125 2.59375,0.96875 6.375,-66.9375 0.25,0.0312 2.21875,-18.71875 3.875,-55.875 1.71875,-19.375 c 0,0 0.50524,-8.2081 0.71875,-11.03125 l -102.5625,-8.84375 0.0625,-0.46875 0,-0.0312 12.25,-88.25 -8.1875,-0.875 -16.40625,-1.78125 -7.8125,-0.9375 2.3125,-13.1875 1.46875,-10.625 -46.75,-8.75 0.0312,-0.0937 -93.0937,-20.6876 -0.15625,0.53125 0.0312,-0.53125 L 35.937823,148.57579 z m 23.625,188.625 -1.21875,0.65625 0.8125,1.4375 1.625,1.625 4.53125,0.25 0.875,-0.65625 -3.0625,-1.21875 L 59.562823,337.20079 z m -3.15625,0.65625 -3.3125,0.0625 0.65625,1.46875 0.5625,1.21875 3.25,0.0625 0.15625,-1.28125 L 56.406573,337.85704 z m 23.6875,18.40625 -1.03125,0.1875 0,1.1875 1.75,2.34375 0.8125,0.96875 1.53125,0.59375 0.59375,-1.46875 -0.96875,-1.78125 L 80.094073,356.26329 z m -2.5,10.03125 -0.5,0.0937 0,2.1875 c 0,0.40416 0.75,1.84375 0.75,1.84375 l 1.28125,1.21875 1.46875,-0.25 -1.21875,-1.9375 L 77.594073,366.29454 Z"/>
        <path id="NW" class="mapRegion" d="m 101.93782,6.9820407 -1.125,0.8125 -0.34375,0.8125 2.4375,4.8437503 1.125,2.59375 -1.78125,3.53125 0,2.28125 0.65625,1.4375 -0.8125,1.78125 0.46875,3.25 1,1.28125 -0.1875,1.28125 -1.4375,0.1875 -0.65625,-1.9375 -1.125,-2.4375 -1.781247,-1.46875 0.3125,-2.09375 2.281247,-0.46875 -0.34375,-1.78125 -0.3125,-1.125 -2.093747,1.28125 -1.3125,1.125 0,2.4375 -2.25,0.15625 -3.40625,-0.96875 -2.90625,-1.46875 -3.0625,-0.625 -4.53125,-2.125 -3.21875,-1.9375 -2.75,-2.5625 -2.4375,-2.9375 -2.09375,-0.46875 -2.28125,9.375 1.78125,3.21875 0,7.9375 -0.625,2.90625 1.4375,7.125 2.75,2.75 -4.375,0.625 -0.15625,3.71875 2.59375,1.125 -1.625,4.0625 -2.75,0.3125 -0.3125,2.90625 2.25,3.218748 0,0.0312 -2.28125,0.81255 -2.28125,6.46875 -3.21875,10.03125 -3.21875,6.46875 -5.03125,14.0625 -6.46875,13.593751 -8.0625,12.59375 -1.9375,2.90625 -0.8125,8.5625 0.375,12.09375 112.593747,26.3125 -0.25,0.96875 c 4.90407,1.05449 57.37283,10.95172 94.84375,18 l -3.78125,23.78125 113.28125,13.59375 7.53125,-88.5625 0,-0.0312 c 0.007,-0.005 0.0247,0.005 0.0312,0 l 8.8125,-86.312499 -30.65625,-2.8125 -29.28125,-3.53125 -29.25,-4.0625 -32.34375,-5.3125 -18.40625,-3.40625 -32.75,-6.9375 0,0.0312 -0.0625,-0.0312 c -9.58172,-1.64573 -20.10353,-4.00695 -28.75,-5.8125 l -22.9687,-5.68755 -20.03125,-5.65625 -8.5625,-1.9375 L 106.28157,8.4195407 101.93782,6.9820407 z m -5.437497,5.5625003 -1.53125,1.625 -0.46875,-1.375 -2.03125,0.15625 0.5,2.5 1.53125,2.28125 0.71875,-0.65625 0.3125,-1.4375 1.71875,0.5625 c 0,0 -1.46875,2.23918 -1.46875,2.5625 0,0.32332 0.90625,0.25 0.90625,0.25 l 1.375,-0.40625 0.71875,-2 -0.65625,-0.8125 1.53125,-1.71875 -0.78125,-1.53125 L 96.500323,12.544541 Z"/>
        <path id="PL" class="mapRegion" d="m 497.01666,53.511056 -0.65625,0.15625 -0.3125,8.25 -30.125,-0.0312 -28.75,-0.5625 -18.59375,-0.6563 -26.53125,-1.28125 -22.9375,-2.125 -7,67.156254 -5.40625,63.68749 -4.28125,43.1875 -81.0625,-9.0625 -12.21875,87.9375 102.65625,9.5 -0.5625,11.09375 1.25,0.0312 0,0.0937 21.46875,1 31.09375,1.15625 0,0.15625 0.0625,0 -1.09375,11.3125 -0.0937,0 -1.1875,12 -0.3125,18.125 0.0625,2.09375 4.34375,3.8125 2,1.46875 1.1875,-0.5625 0.375,-1.84375 1.125,1.8125 2.125,0.0625 0,-1.46875 1.65625,0.96875 1.15625,0.40625 -0.375,3.96875 4.09375,0.0937 2.9375,1.21875 3.9375,0.5 2.375,2.09375 2.125,-2.0625 3.71875,0.59375 2.25,3.21875 1.0625,0.34375 -0.15625,1.96875 2.21875,0.78125 2.3125,-2.0625 2.125,0.625 2.25,0.0312 0.9375,2.4375 6.3125,2.125 1.59375,-0.78125 1.5,-4.1875 0.34375,0 0.90625,0.0937 1.21875,2.0625 3.9375,0.65625 3.34375,1.125 3.40625,1.21875 1.84375,-1 0.71875,-2.5 4.4375,0.0312 1.8125,0.9375 2.8125,-2.09375 1.09375,0.0312 0.84375,1.625 4.0625,0 1.53125,-2.03125 1.875,0.40625 1.9375,2.40625 3.5,2.03125 2.875,0.8125 1.5,0.78125 0.90625,0.71875 -0.71875,-37.59375 -1.375,-10.96875 -0.15625,-8.875 -1.4375,-6.53125 47.55605,-2.11096 -1.8685,-90.60779 1.28125,2.4375 2.46875,3.125 1.5625,-1.09375 -0.28125,-2.125 0.28125,-1.34375 1.625,-1.125 1.875,-0.4375 -0.125,-2.78125 0.78125,-1.65625 1.75,-1.53125 0.28125,-4.03125 -1.84375,-1.6875 -0.71875,-1.375 1.375,-3.84375 5.59375,-1.84375 1.71875,-0.59375 2.15625,-1.59375 0.8125,-2.75 1.5625,-3.21875 0.6875,-3.4375 -0.6875,-2.375 -3.78125,-3.375 -0.5,-1.84375 -0.96875,-1.21875 -2.21885,-0.59335 -0.25,-2.78125 -0.65625,-0.84375 -3.09375,-0.5 -2.53125,-1.28125 -2.5,-3.8125 -0.1875,-3.1875 2,-3.40625 -0.25,-1.40625 -2.25,-1.5625 -0.8125,-4.1875 -0.0937,-0.0312 -0.6563,-6.43755 -2.15625,-2.875 -7.0625,-4.125 -3.875,-5.65625 -3.375,-0.53125 -1.90625,-3.125 -3.3125,0 -3.03125,-3 -0.375,-6.71875 -0.15625,-3.75 1.84375,-3.25 -0.6875,-3.21875 -2.875,-2.25 2.25,-5.96874 5.0625,-3.75 1.40625,-1.6875 -0.125,-8.0625 0.25,-3.1875 2.46875,-3.1875 4.3125,-2.78125 1.28125,-0.15625 4.53125,-5 1.78125,-0.8125 2.28125,-3.875004 2.40625,-3.5625 3.09375,-2.59375 4.75,-2 9.25,-4.0625 3.9375,-1.84375 0.625,-2.28125 -4.4375,0.375 -0.71875,1.09375 -0.65625,0 -1.78125,-3.0625 -8.875,0.3125 -0.96875,0.8125 -0.96875,0 -0.5,-1.3125 -0.8125,-1.78125 -2.5625,0.5 -3.25,3.21875 -1.625,0.8125 -3.0625,0 -2.59375,-0.96875 0,-2.09375 -1.28125,-0.15625 -0.5,0.46875 -2.5625,-1.28125 -0.5,-2.90625 -1.4375,0.46875 -0.5,0.96875 -2.4375,-0.46875 -5.3125,-2.4375 -3.875,-2.5625 -2.9375,0 -1.28125,-1 -2.25,0.65625 -1.15625,1.125 -0.3125,1.3125 -4.84375,0 0,-2.09375 -6.3125,-0.34375 -0.3125,-1.4375 -4.84375,0 -1.625,-1.625 -1.46875,-6.15625 -0.8125,-5.5 L 499.26666,54.011056 Z"/>
      </g>
      <g id="AUS" fill="#d3d3d3" stroke="black" stroke-width="0.5" transform="scale(2) translate(25 25)" visibility="hidden">
        <path id="NS" class="mapRegion" d="M 271.2875,129.6 L 270.4125,130.225 L 269.75625,130.85 L 268.6625,130.94375 L 267.75625,131.0375 L 267.6625,131.7875 L 267.94375,132.85 L 268.6625,132.7875 L 268.00625,133.56875 L 267.88125,134.13125 L 266.85,134.6 L 266.06875,134.31875 L 265.6625,133.63125 L 265.00625,134.4125 L 264.35,135.225 L 264.0375,135.7875 L 263.35,136.225 L 262.88125,135.1625 L 262.81875,134.44375 L 262.38125,133.75625 L 261.975,133.25625 L 261.31875,132.4125 L 260.19375,132.1625 L 258.56875,132.13125 L 257.975,131.81875 L 257.225,131.5375 L 256.50625,131.6 L 256.2875,131.06875 L 255.38125,131.1625 L 253.94375,131.6625 L 252.6625,131.44375 L 251.35,131.0375 L 250.7875,131.06875 L 250.00625,132.25625 L 248.9125,132.1625 L 248.81875,133.2875 L 248.1,133.35 L 248.1625,133.88125 L 247.2875,134.35 L 194.1625,134.2875 L 194.1625,179.35 L 194.1625,179.38125 L 194.225,179.6 L 195.35,179.4125 L 197.19375,180.2875 L 198.225,179.56875 L 199.975,179.85 L 202.1,180.1 L 203.81875,181.5375 L 204.31875,183.56875 L 205.4125,184.5375 L 205.44375,183.56875 L 206.50625,183.0375 L 207.475,183.25625 L 209.19375,183.38125 L 210.19375,183.7875 L 210.81875,186.5375 L 212.25625,188.6 L 213.38125,188.63125 L 215.00625,189.31875 L 216.975,191.1 L 217.35,192.38125 L 218.63125,193.31875 L 220.25625,194.00625 L 221.56875,193.81875 L 221.31875,192.35 L 221.81875,191.69375 L 222.5375,191.6 L 223.38125,192.0375 L 225.225,191.75625 L 226.6625,192.475 L 227.56875,192.35 L 228.7875,192.9125 L 229.975,193.13125 L 230.63125,192.44375 L 231.50625,192.13125 L 232.56875,192.725 L 234.50625,193.19375 L 235.975,192.7875 L 237.0375,192.44375 L 237.7875,192.31875 L 238.50625,192.0375 L 239.4125,191.69375 L 240.81875,192.44375 L 240.63125,193.6 L 241.19375,194.81875 L 241.9125,195.85 L 242.25625,196.94375 L 242.1,198.2875 L 250.2875,202.35 L 252.00625,202.475 L 252.725,203.13125 L 253.38125,203.13125 L 253.225,203.56875 L 253.35,203.6625 L 254.44375,203.13125 L 254.225,201.4125 L 254.6625,201.19375 L 255.1,201.19375 L 254.6625,200.13125 L 253.81875,199.9125 L 254.225,199.06875 L 253.81875,198.00625 L 254.225,198.225 L 254.6625,196.725 L 255.50625,193.31875 L 255.2875,191.19375 L 255.725,189.9125 L 255.2875,189.9125 L 256.35,189.06875 L 255.725,188.225 L 256.56875,188.4125 L 258.2875,184.38125 L 259.75625,183.94375 L 259.13125,182.6625 L 259.75625,182.475 L 259.75625,183.31875 L 260.19375,183.1 L 259.75625,181.81875 L 259.35,182.0375 L 259.56875,181.6 L 258.69375,181.4125 L 260.19375,180.75625 L 260.63125,179.25625 L 260.19375,178.63125 L 260.85,178.4125 L 260.85,176.9125 L 262.5375,175.225 L 261.9125,175.00625 L 262.975,174.7875 L 261.69375,174.38125 L 263.1625,174.1625 L 263.38125,173.1 L 262.75625,173.50625 L 262.31875,173.1 L 262.975,173.31875 L 262.75625,172.6625 L 263.38125,173.1 L 263.6,171.38125 L 263.6,171.1625 L 263.1625,171.6 L 263.1625,170.975 L 262.975,171.1625 L 262.75625,170.5375 L 263.38125,170.975 L 263.6,169.9125 L 263.6,170.75625 L 264.44375,170.31875 L 264.6625,169.25625 L 264.25625,168.85 L 265.1,168.85 L 265.725,167.13125 L 265.1,167.975 L 264.88125,167.13125 L 265.50625,167.13125 L 265.50625,166.2875 L 265.725,167.13125 L 266.6,165.63125 L 266.38125,165.225 L 266.7875,165.225 L 266.7875,165.85 L 269.35,164.35 L 268.50625,164.1625 L 267.6625,164.7875 L 267.44375,164.56875 L 267.85,164.1625 L 267.6625,163.725 L 268.50625,164.1625 L 269.13125,163.725 L 269.35,164.1625 L 270.19375,162.88125 L 271.69375,162.00625 L 271.9125,160.31875 L 271.25625,160.1 L 271.25625,160.5375 L 270.4125,160.1 L 271.25625,160.1 L 271.475,160.1 L 271.69375,158.6 L 273.19375,157.35 L 275.1,151.1625 L 274.88125,146.9125 L 276.38125,143.06875 L 276.6,142.4125 L 277.225,138.81875 L 276.6,138.38125 L 277.225,138.6 L 277.0375,137.75625 L 278.725,134.5375 L 278.2875,134.5375 L 278.725,134.35 L 278.94375,132.63125 L 278.2875,131.7875 L 278.475,129.88125 L 277.50625,129.9125 L 276.6,129.81875 L 276.06875,130.225 L 275.56875,130.44375 L 275.00625,130.50625 L 274.06875,130.225 L 273.0375,130.69375 L 272.225,129.88125 L 271.2875,129.6 z "/>
        <path id="NT" class="mapRegion" d="M 113.85,33.81875 L 113.85,117.35 L 173.4125,117.35 L 173.4125,44.19375 L 172.6625,43.19375 L 170.5375,42.5375 L 167.75625,40.63125 L 167.13125,40.85 L 167.35,41.2875 L 166.2875,40.85 L 165.63125,41.06875 L 165.63125,40.19375 L 163.2875,39.13125 L 162.44375,37.44375 L 159.0375,35.31875 L 158.81875,35.5375 L 158.81875,35.1 L 158.19375,35.31875 L 157.13125,34.25625 L 156.69375,32.75625 L 157.975,32.31875 L 159.0375,29.7875 L 160.31875,29.13125 L 160.5375,27.85 L 161.6,25.50625 L 160.725,26.1625 L 160.31875,25.94375 L 160.1,24.0375 L 160.5375,24.225 L 160.94375,23.81875 L 160.31875,23.6 L 160.5375,22.975 L 161.1625,22.5375 L 161.38125,23.1625 L 162.00625,21.9125 L 162.225,22.975 L 162.44375,21.9125 L 163.06875,22.1 L 163.2875,21.475 L 163.725,22.5375 L 163.2875,23.1625 L 164.13125,22.75625 L 164.7875,21.475 L 164.13125,20.81875 L 165.4125,21.0375 L 164.13125,19.56875 L 164.56875,19.75625 L 164.7875,19.35 L 165.225,19.975 L 165.00625,19.13125 L 165.63125,19.13125 L 166.06875,18.06875 L 165.85,17.4125 L 166.2875,17.4125 L 166.2875,18.06875 L 167.56875,16.56875 L 166.2875,15.2875 L 165.63125,15.725 L 166.06875,16.13125 L 165.4125,16.13125 L 164.56875,14.225 L 164.13125,14.225 L 164.7875,13.38125 L 162.225,15.2875 L 163.725,15.725 L 163.06875,17.00625 L 162.44375,17.4125 L 161.6,17.225 L 161.1625,17.63125 L 161.1625,17.00625 L 160.725,17.00625 L 161.38125,15.94375 L 160.725,16.13125 L 160.5375,15.725 L 161.38125,14.6625 L 159.6625,15.50625 L 159.44375,16.1625 L 158.81875,15.725 L 160.5375,13.81875 L 158.19375,15.06875 L 157.975,14.6625 L 156.9125,14.88125 L 155.85,15.50625 L 156.69375,15.94375 L 155.4125,15.725 L 155.85,16.35 L 153.2875,15.2875 L 152.63125,13.81875 L 151.7875,14.88125 L 149.225,14.225 L 148.6,15.50625 L 149.0375,14.44375 L 148.6,13.6 L 148.1625,13.81875 L 147.94375,13.1625 L 147.1,13.81875 L 146.475,13.1625 L 147.1,12.5375 L 146.25625,12.31875 L 144.35,13.38125 L 144.5375,12.5375 L 144.13125,12.94375 L 143.69375,12.31875 L 143.06875,12.725 L 143.25625,12.1 L 142.00625,12.31875 L 140.50625,9.75625 L 140.06875,9.75625 L 140.2875,10.4125 L 139.85,10.19375 L 138.7875,11.0375 L 137.31875,8.9125 L 136.88125,9.5375 L 136.6625,8.25625 L 136.0375,8.69375 L 136.25625,9.31875 L 135.1625,8.25625 L 135.38125,9.5375 L 135.81875,9.75625 L 135.38125,10.4125 L 134.975,8.9125 L 134.1,8.25625 L 134.1,9.13125 L 133.0375,8.9125 L 133.25625,9.31875 L 132.85,9.75625 L 133.9125,9.5375 L 134.1,9.975 L 133.9125,10.19375 L 134.75625,10.4125 L 134.975,11.0375 L 135.81875,10.6 L 137.725,10.4125 L 137.725,10.81875 L 138.1625,10.81875 L 137.725,11.0375 L 138.38125,11.25625 L 137.94375,11.25625 L 138.38125,11.475 L 137.94375,11.6625 L 139.00625,11.6625 L 139.225,11.6625 L 138.1625,12.725 L 139.00625,13.38125 L 138.6,13.6 L 138.38125,14.88125 L 139.44375,15.2875 L 137.975,14.88125 L 137.31875,15.2875 L 137.1,16.56875 L 136.69375,15.50625 L 136.0375,15.94375 L 135.81875,15.2875 L 134.75625,16.35 L 133.69375,15.725 L 130.725,16.13125 L 129.88125,15.50625 L 129.6625,14.44375 L 129.225,15.725 L 127.5375,15.2875 L 127.94375,16.7875 L 126.88125,16.56875 L 126.475,17.00625 L 127.5375,17.85 L 126.6625,17.63125 L 127.06875,18.2875 L 126.6625,18.69375 L 126.25625,17.85 L 126.25625,18.06875 L 125.81875,18.2875 L 126.0375,17.19375 L 124.75625,17.00625 L 124.975,18.475 L 124.5375,18.475 L 125.81875,19.13125 L 125.19375,19.13125 L 125.19375,19.5375 L 124.13125,18.475 L 123.475,18.69375 L 123.69375,19.13125 L 123.25625,18.69375 L 123.25625,20.19375 L 121.7875,20.6 L 121.7875,22.1 L 123.0375,23.6 L 122.63125,23.38125 L 120.9125,24.6625 L 120.2875,24.44375 L 120.2875,24.0375 L 119.63125,24.44375 L 119.44375,26.35 L 119.85,26.1625 L 119.00625,26.7875 L 119.225,27.85 L 118.56875,28.2875 L 118.1625,27.85 L 118.56875,28.9125 L 118.1625,28.50625 L 117.725,29.35 L 117.50625,28.69375 L 116.6625,30.19375 L 116.6625,30.85 L 117.2875,31.475 L 117.725,31.0375 L 117.725,31.69375 L 118.56875,31.475 L 118.7875,31.9125 L 119.63125,31.475 L 119.44375,31.9125 L 118.38125,32.5375 L 119.00625,32.5375 L 119.00625,32.975 L 118.7875,32.975 L 118.94375,33.25625 L 119.1,33.31875 L 119.63125,32.975 L 119.44375,33.6 L 120.9125,32.75625 L 120.9125,33.38125 L 120.06875,33.38125 L 120.50625,33.81875 L 119.85,33.6 L 119.44375,33.6 L 118.56875,33.6 L 119.00625,34.44375 L 118.56875,34.0375 L 118.7875,35.5375 L 118.1625,35.725 L 117.50625,34.25625 L 116.88125,34.0375 L 117.1,35.1 L 116.225,33.81875 L 116.44375,34.25625 L 116.0375,34.25625 L 115.81875,34.25625 L 116.225,34.88125 L 115.81875,35.31875 L 116.44375,35.5375 L 115.81875,35.5375 L 115.6,36.38125 L 115.6,35.725 L 115.1625,36.6 L 115.6,35.5375 L 115.38125,35.31875 L 114.94375,34.88125 L 114.94375,34.0375 L 114.5375,34.6625 L 114.5375,33.81875 L 113.85,33.81875 z "/>
        <path id="QL" class="mapRegion" d="M 204.81875,5.2875 L 203.975,5.50625 L 203.31875,6.7875 L 202.06875,7.19375 L 202.25625,8.25625 L 201.63125,11.0375 L 201.4125,11.0375 L 201.19375,12.5375 L 201.85,12.5375 L 201.00625,12.725 L 200.7875,14.00625 L 201.19375,14.6625 L 201.63125,14.225 L 201.19375,14.88125 L 200.7875,14.6625 L 200.56875,15.50625 L 200.35,14.00625 L 199.2875,15.725 L 199.9125,15.94375 L 199.2875,15.94375 L 198.44375,18.06875 L 199.06875,18.06875 L 198.85,17.225 L 199.50625,17.4125 L 199.06875,17.63125 L 199.9125,18.2875 L 201.00625,18.2875 L 199.9125,18.69375 L 201.00625,19.13125 L 200.56875,19.35 L 200.7875,20.4125 L 199.9125,18.9125 L 199.50625,19.975 L 198.44375,20.81875 L 199.06875,22.75625 L 198.85,23.38125 L 199.2875,23.1625 L 199.06875,23.38125 L 199.50625,23.6 L 198.6625,23.6 L 197.56875,26.7875 L 198.6625,29.13125 L 198.00625,31.25625 L 198.85,35.1 L 197.56875,38.50625 L 196.94375,41.06875 L 197.38125,42.13125 L 195.88125,46.38125 L 194.1625,48.50625 L 193.75625,51.2875 L 191.81875,52.7875 L 188.225,53.63125 L 187.7875,53.4125 L 186.50625,52.56875 L 185.00625,52.35 L 184.1625,51.2875 L 182.6625,50.63125 L 182.25625,48.725 L 181.4125,47.88125 L 178.63125,47.0375 L 175.225,46.6 L 173.4125,44.19375 L 173.4125,117.35 L 194.1625,117.35 L 194.1625,134.2875 L 247.2875,134.35 L 248.1625,133.88125 L 248.1,133.35 L 248.81875,133.2875 L 248.9125,132.1625 L 250.00625,132.25625 L 250.7875,131.06875 L 251.35,131.0375 L 252.6625,131.44375 L 253.94375,131.6625 L 255.38125,131.1625 L 256.2875,131.06875 L 256.50625,131.6 L 257.225,131.5375 L 257.975,131.81875 L 258.56875,132.13125 L 260.19375,132.1625 L 261.31875,132.4125 L 261.975,133.25625 L 262.38125,133.75625 L 262.81875,134.44375 L 262.88125,135.1625 L 263.35,136.225 L 264.0375,135.7875 L 264.35,135.225 L 265.00625,134.4125 L 265.6625,133.63125 L 266.06875,134.31875 L 266.85,134.6 L 267.88125,134.13125 L 268.00625,133.56875 L 268.6625,132.7875 L 267.94375,132.85 L 267.6625,131.7875 L 267.75625,131.0375 L 268.6625,130.94375 L 269.75625,130.85 L 270.4125,130.225 L 271.2875,129.6 L 272.225,129.88125 L 273.0375,130.69375 L 274.06875,130.225 L 275.00625,130.50625 L 275.56875,130.44375 L 276.06875,130.225 L 276.6,129.81875 L 277.50625,129.9125 L 278.475,129.88125 L 278.50625,129.44375 L 277.6625,128.6 L 277.06875,126.0375 L 276.6,124.13125 L 275.975,123.25625 L 275.31875,123.69375 L 275.75625,123.0375 L 274.88125,122.63125 L 275.5375,121.975 L 274.88125,121.35 L 275.75625,120.9125 L 275.1,120.2875 L 275.1,119.63125 L 276.1625,120.9125 L 275.5375,119.00625 L 275.31875,119.63125 L 275.75625,117.94375 L 275.31875,117.6625 L 275.5375,115.81875 L 275.1,115.81875 L 275.975,112.4125 L 275.5375,112.4125 L 275.1,111.5375 L 274.69375,112.81875 L 274.88125,111.75625 L 274.25625,111.75625 L 274.69375,111.35 L 273.81875,110.69375 L 273.81875,109.4125 L 274.475,108.7875 L 273.19375,109.19375 L 274.25625,108.7875 L 274.0375,107.725 L 271.69375,107.06875 L 272.35,106.6625 L 271.06875,105.1625 L 271.2875,104.31875 L 270.63125,103.88125 L 270.4125,104.31875 L 270.63125,103.6625 L 269.35,103.0375 L 269.35,103.25625 L 268.2875,102.19375 L 267.225,99.4125 L 266.38125,99.19375 L 266.6,98.35 L 266.1625,98.975 L 266.1625,98.35 L 265.5375,98.13125 L 265.94375,98.975 L 265.1,98.56875 L 265.1,98.975 L 264.25625,98.56875 L 264.25625,98.975 L 261.475,95.1625 L 260.85,96.00625 L 259.975,94.725 L 260.4125,94.50625 L 259.7875,93.225 L 260.19375,92.81875 L 259.56875,90.475 L 259.975,90.475 L 260.19375,88.75625 L 259.7875,87.69375 L 259.7875,88.35 L 259.35,88.13125 L 258.9125,87.2875 L 259.56875,87.50625 L 259.7875,87.2875 L 259.13125,86.225 L 259.13125,87.06875 L 258.9125,86.225 L 258.50625,86.00625 L 258.2875,86.63125 L 258.9125,87.69375 L 258.50625,87.50625 L 258.9125,88.56875 L 255.94375,86.4125 L 254.88125,84.725 L 254.6625,85.1625 L 254.0375,86.225 L 254.6625,87.69375 L 255.1,88.56875 L 254.6625,88.13125 L 253.38125,86.63125 L 252.1,88.13125 L 252.75625,86.63125 L 251.88125,86.63125 L 252.31875,86.4125 L 252.1,86.00625 L 251.25625,86.225 L 252.1,85.7875 L 250.81875,82.81875 L 251.25625,80.475 L 251.0375,80.88125 L 250.19375,80.0375 L 249.975,80.475 L 249.975,78.5375 L 249.13125,78.975 L 249.35,78.31875 L 249.13125,78.31875 L 249.5375,77.25625 L 248.69375,76.4125 L 248.06875,76.85 L 248.25625,76.00625 L 246.7875,76.00625 L 246.56875,75.35 L 247.00625,75.13125 L 245.94375,74.50625 L 246.13125,74.06875 L 245.50625,73.44375 L 246.13125,73.225 L 245.725,72.7875 L 246.35,73.00625 L 246.56875,72.56875 L 247.63125,73.44375 L 246.35,71.31875 L 245.94375,71.50625 L 245.94375,70.88125 L 245.2875,70.88125 L 245.06875,70.0375 L 244.44375,70.0375 L 244.225,70.0375 L 244.225,70.88125 L 243.6,70.6625 L 242.725,69.81875 L 242.94375,69.6 L 242.94375,69.38125 L 241.88125,68.75625 L 240.6,68.975 L 240.19375,67.475 L 239.5375,67.475 L 239.975,68.5375 L 239.1,68.31875 L 237.85,67.0375 L 238.69375,67.475 L 237.4125,64.69375 L 237.4125,65.56875 L 235.50625,65.75625 L 234.63125,63.85 L 234.44375,64.69375 L 233.7875,64.69375 L 233.1625,63.85 L 231.00625,63.00625 L 229.75625,61.50625 L 230.1625,59.1625 L 229.31875,59.1625 L 227.81875,56.6 L 228.88125,52.975 L 228.475,52.975 L 228.475,51.2875 L 227.19375,48.94375 L 227.6,47.88125 L 226.5375,48.1 L 224.00625,44.69375 L 224.00625,43.63125 L 224.4125,43.63125 L 224.4125,42.13125 L 223.56875,41.06875 L 223.35,38.725 L 222.50625,37.88125 L 223.56875,36.6 L 223.56875,36.38125 L 222.9125,36.6 L 222.725,35.5375 L 223.56875,34.475 L 223.13125,34.475 L 222.725,33.6 L 221.44375,33.4125 L 220.56875,32.13125 L 219.1,31.69375 L 218.0375,28.9125 L 216.75625,29.975 L 215.9125,29.56875 L 215.475,30.85 L 214.19375,31.475 L 213.13125,30.63125 L 212.50625,27.85 L 211.4125,26.1625 L 211.85,24.0375 L 211.225,21.9125 L 211.4125,19.975 L 210.1625,20.4125 L 210.7875,18.475 L 209.50625,17.63125 L 209.50625,16.7875 L 208.44375,16.56875 L 208.225,15.06875 L 209.50625,14.00625 L 208.44375,13.6 L 207.6,13.81875 L 206.94375,13.1625 L 206.94375,9.975 L 206.1,7.4125 L 205.475,7.4125 L 205.0375,6.56875 L 205.0375,6.975 L 204.19375,7.4125 L 205.25625,5.69375 L 205.0375,5.50625 L 204.81875,5.2875 z "/>
        <path id="WA" class="mapRegion" d="M 113.85,156.31875 L 113.85,117.35 L 113.85,117.35 L 113.85,33.81875 L 112.6,33.81875 L 112.19375,33.38125 L 111.35,33.19375 L 110.06875,33.38125 L 110.9125,34.0375 L 111.13125,34.88125 L 110.2875,33.81875 L 110.9125,34.88125 L 110.69375,34.6625 L 110.475,35.1 L 110.06875,34.6625 L 109.85,35.5375 L 109.4125,34.44375 L 109.00625,35.1 L 110.06875,38.06875 L 109.63125,38.06875 L 109.4125,37.00625 L 108.35,35.94375 L 108.35,37.6625 L 107.725,38.2875 L 108.13125,37.44375 L 107.725,36.7875 L 108.13125,36.6 L 107.9125,35.31875 L 108.56875,33.81875 L 108.13125,33.81875 L 109.00625,33.6 L 108.56875,32.975 L 109.00625,32.75625 L 107.50625,31.69375 L 107.2875,32.13125 L 105.38125,29.13125 L 103.88125,28.2875 L 103.6625,27.44375 L 103.0375,27.225 L 103.25625,27.85 L 102.6,27.225 L 102.1625,27.63125 L 102.1625,27.225 L 101.75625,27.63125 L 101.31875,26.56875 L 100.0375,26.1625 L 100.0375,26.56875 L 99.19375,26.38125 L 99.63125,27.44375 L 100.475,27.85 L 100.1,27.81875 L 98.975,27.63125 L 99.19375,28.2875 L 98.75625,28.725 L 98.56875,28.2875 L 98.35,29.56875 L 97.69375,28.2875 L 97.2875,28.50625 L 97.69375,27.44375 L 96.4125,28.2875 L 96.225,28.725 L 96.63125,29.13125 L 95.7875,29.56875 L 95.56875,28.50625 L 95.1625,28.50625 L 95.56875,28.06875 L 95.1625,28.06875 L 95.56875,27.63125 L 94.94375,28.06875 L 94.2875,27.85 L 94.2875,28.2875 L 94.1,27.85 L 94.1,28.2875 L 95.35,28.9125 L 94.50625,29.56875 L 94.725,30.19375 L 94.1,30.63125 L 94.50625,31.475 L 93.6625,31.475 L 93.6625,32.5375 L 93.00625,31.9125 L 93.225,31.06875 L 92.38125,31.25625 L 92.38125,30.63125 L 91.75625,32.31875 L 91.94375,30.4125 L 92.38125,29.7875 L 91.5375,29.35 L 91.5375,31.69375 L 90.88125,31.475 L 90.475,32.31875 L 90.25625,31.69375 L 89.81875,32.13125 L 90.0375,31.25625 L 89.19375,32.13125 L 89.6,32.31875 L 88.31875,32.975 L 88.975,33.81875 L 89.6,33.81875 L 88.75625,34.475 L 90.0375,34.88125 L 90.25625,34.475 L 90.6625,34.6625 L 89.81875,35.5375 L 90.88125,35.94375 L 89.81875,35.94375 L 89.4125,35.31875 L 88.5375,35.94375 L 87.9125,34.475 L 87.475,34.6625 L 87.69375,35.5375 L 86.4125,35.725 L 86.85,35.94375 L 86.63125,36.6 L 87.9125,35.725 L 86.63125,36.81875 L 87.06875,37.225 L 88.13125,36.6 L 88.13125,37.00625 L 88.5375,37.00625 L 87.9125,37.6625 L 89.19375,38.725 L 88.13125,37.88125 L 87.69375,38.2875 L 87.25625,37.44375 L 86.4125,37.225 L 86.4125,36.7875 L 85.7875,37.225 L 85.35,38.06875 L 85.13125,37.6625 L 84.9125,38.2875 L 84.06875,38.06875 L 84.2875,38.2875 L 83.44375,38.94375 L 83.85,39.13125 L 83.225,39.35 L 84.06875,41.69375 L 84.2875,41.31875 L 84.2875,41.475 L 84.725,40.85 L 84.35,41.19375 L 84.9125,40.19375 L 85.56875,39.7875 L 85.13125,40.19375 L 85.7875,40.19375 L 84.9125,40.85 L 84.725,42.35 L 85.13125,42.35 L 84.2875,42.75625 L 84.725,42.975 L 84.2875,43.19375 L 83.85,42.13125 L 83.44375,44.0375 L 84.9125,43.81875 L 85.75625,44.25625 L 83.85,44.475 L 83.44375,44.0375 L 83.00625,44.475 L 83.38125,44.69375 L 82.38125,44.88125 L 83.00625,44.69375 L 82.38125,44.475 L 81.725,43.63125 L 80.25625,42.975 L 80.88125,43.63125 L 80.44375,43.63125 L 80.88125,44.25625 L 80.0375,43.63125 L 80.0375,43.81875 L 78.975,43.4125 L 79.38125,43.4125 L 79.1625,42.975 L 79.6,42.975 L 78.75625,42.5375 L 78.75625,42.975 L 78.1,42.75625 L 78.31875,43.19375 L 77.9125,42.75625 L 78.31875,43.4125 L 77.9125,43.63125 L 78.75625,43.81875 L 78.975,44.25625 L 78.31875,44.0375 L 78.975,44.475 L 78.5375,44.475 L 78.31875,44.475 L 77.475,44.475 L 78.5375,45.1 L 77.06875,45.1 L 77.475,45.75625 L 77.69375,45.31875 L 78.31875,45.5375 L 77.475,46.1625 L 78.975,46.6 L 79.38125,47.88125 L 80.25625,47.44375 L 80.25625,47.0375 L 80.6625,47.225 L 79.6,48.2875 L 80.0375,48.725 L 79.38125,48.50625 L 80.475,50.44375 L 78.5375,48.50625 L 77.9125,48.725 L 78.75625,50.225 L 78.31875,50.00625 L 77.9125,51.06875 L 77.9125,52.13125 L 76.63125,50.85 L 75.975,48.725 L 75.13125,48.1 L 75.13125,46.38125 L 74.50625,46.38125 L 73.85,45.75625 L 74.06875,44.88125 L 74.725,44.69375 L 74.2875,44.0375 L 73.63125,44.25625 L 72.38125,46.38125 L 73.00625,47.0375 L 71.2875,46.81875 L 71.1,47.44375 L 71.50625,48.2875 L 70.6625,47.88125 L 70.6625,48.2875 L 69.81875,48.50625 L 69.1625,49.38125 L 69.6,49.56875 L 68.5375,50.44375 L 68.31875,52.35 L 68.94375,53.85 L 68.5375,55.31875 L 70.0375,55.5375 L 70.0375,56.38125 L 67.0375,58.5375 L 66.19375,58.725 L 65.5375,59.6 L 65.975,60.225 L 64.9125,60.44375 L 65.13125,61.2875 L 64.06875,63.225 L 61.50625,66.4125 L 55.5375,68.975 L 54.0375,69.1625 L 52.56875,69.1625 L 51.9125,69.6 L 51.06875,70.225 L 50.44375,69.6 L 48.50625,69.1625 L 48.725,69.6 L 48.725,69.81875 L 48.50625,69.6 L 48.1,69.38125 L 47.88125,69.6 L 46.38125,71.50625 L 41.9125,72.38125 L 41.9125,71.94375 L 40.225,73.00625 L 40.4125,73.44375 L 39.7875,73.44375 L 39.35,74.2875 L 38.2875,74.50625 L 38.2875,74.2875 L 36.6,75.13125 L 35.31875,74.50625 L 35.1,73.85 L 33.6,74.725 L 32.975,74.50625 L 32.5375,74.2875 L 33.19375,73.225 L 32.75625,73.225 L 31.69375,74.50625 L 31.9125,74.725 L 31.475,74.725 L 29.35,75.7875 L 28.69375,75.35 L 28.50625,76.4125 L 26.7875,77.25625 L 26.1625,78.5375 L 25.1,78.75625 L 24.0375,80.475 L 19.975,81.5375 L 18.2875,82.6 L 18.06875,83.88125 L 17.63125,84.06875 L 17.19375,83.88125 L 17.4125,84.725 L 16.7875,85.7875 L 17.19375,86.225 L 16.7875,86.00625 L 17.00625,86.4125 L 16.13125,87.475 L 15.725,86.85 L 14.6625,87.475 L 15.06875,86.00625 L 14.6625,86.4125 L 14.44375,84.94375 L 15.2875,82.38125 L 13.7875,82.81875 L 11.6625,87.9125 L 12.725,90.69375 L 12.31875,91.975 L 12.5375,94.50625 L 10.38125,97.50625 L 9.975,101.31875 L 11.6625,104.1 L 11.44375,104.5375 L 11.88125,106.225 L 12.725,106.88125 L 15.06875,111.56875 L 15.725,111.75625 L 15.94375,112.81875 L 15.2875,112.81875 L 15.50625,115.1625 L 14.44375,116.44375 L 13.38125,114.75625 L 13.1625,112.4125 L 13.1625,113.475 L 12.1,114.31875 L 12.31875,111.975 L 10.6,109.225 L 9.975,110.9125 L 10.38125,111.35 L 10.38125,110.475 L 11.0375,113.69375 L 13.1625,115.38125 L 12.94375,117.31875 L 11.6625,117.94375 L 11.44375,116.44375 L 11.25625,117.725 L 10.81875,115.1625 L 10.6,116.44375 L 9.75625,113.0375 L 9.975,115.81875 L 9.31875,115.38125 L 9.31875,113.0375 L 9.13125,114.75625 L 8.25625,114.1 L 13.7875,122.19375 L 15.06875,125.6 L 14.6625,126.6625 L 15.06875,128.81875 L 17.4125,131.56875 L 18.06875,132.85 L 17.85,133.69375 L 19.75625,136.25625 L 20.63125,139.25625 L 20.4125,143.06875 L 20.4125,143.50625 L 21.0375,146.9125 L 25.2875,155.85 L 25.50625,159.0375 L 26.56875,158.4125 L 26.56875,158.81875 L 25.50625,159.0375 L 25.725,160.1 L 25.2875,160.75625 L 25.50625,162.25625 L 24.6625,163.94375 L 25.2875,168.85 L 22.975,171.6 L 21.88125,171.6 L 20.63125,170.75625 L 20.63125,175.225 L 21.475,177.56875 L 21.69375,177.1625 L 22.94375,176.94375 L 25.2875,178.225 L 27.225,181.19375 L 29.7875,182.0375 L 29.975,181.4125 L 30.85,182.0375 L 29.7875,182.0375 L 31.475,183.1 L 32.13125,182.475 L 33.38125,183.1 L 36.38125,182.69375 L 38.06875,183.75625 L 38.50625,182.88125 L 40.4125,183.5375 L 40.85,183.31875 L 39.7875,182.88125 L 40.225,182.0375 L 40.63125,181.81875 L 40.4125,182.69375 L 42.13125,182.69375 L 41.9125,182.0375 L 43.4125,181.81875 L 43.63125,180.5375 L 45.5375,179.69375 L 45.75625,178.85 L 46.81875,178.4125 L 46.38125,178.00625 L 49.1625,178.85 L 49.38125,178.00625 L 50.225,178.225 L 50.225,177.35 L 51.2875,177.56875 L 50.44375,176.725 L 53.4125,173.94375 L 54.0375,173.94375 L 56.81875,174.38125 L 57.88125,173.5375 L 63.225,172.88125 L 65.975,173.725 L 67.475,173.1 L 68.31875,174.6 L 69.38125,174.6 L 69.81875,173.725 L 71.2875,174.1625 L 71.50625,173.5375 L 74.2875,173.31875 L 74.9125,173.725 L 75.13125,174.6 L 76.63125,173.5375 L 77.69375,173.94375 L 80.6625,170.975 L 81.5375,167.56875 L 82.38125,166.69375 L 86.225,165.44375 L 93.88125,160.94375 L 95.56875,160.5375 L 98.7875,160.94375 L 102.38125,160.75625 L 109.225,158.63125 L 113.85,156.31875 z M 87.25625,44.25625 L 86.19375,44.69375 L 85.81875,44.2875 L 86.19375,44.475 L 87.25625,44.25625 z M 8.693,113.044 L 6.989,109.211 L 6.989,111.341 L 8.693,114.109 L 8.693,113.044 z "/>
        <path id="VI" class="mapRegion" d="M 253.1625,203.75625 L 252.5375,203.13125 L 252.725,203.13125 L 252.00625,202.475 L 250.2875,202.35 L 242.1,198.2875 L 242.25625,196.94375 L 241.9125,195.85 L 241.19375,194.81875 L 240.63125,193.6 L 240.81875,192.44375 L 239.4125,191.69375 L 238.50625,192.0375 L 237.7875,192.31875 L 237.0375,192.44375 L 235.975,192.7875 L 234.50625,193.19375 L 232.56875,192.725 L 231.50625,192.13125 L 230.63125,192.44375 L 229.975,193.13125 L 228.7875,192.9125 L 227.56875,192.35 L 226.6625,192.475 L 225.225,191.75625 L 223.38125,192.0375 L 222.5375,191.6 L 221.81875,191.69375 L 221.31875,192.35 L 221.56875,193.81875 L 220.25625,194.00625 L 218.63125,193.31875 L 217.35,192.38125 L 216.975,191.1 L 215.00625,189.31875 L 213.38125,188.63125 L 212.25625,188.6 L 210.81875,186.5375 L 210.19375,183.7875 L 209.19375,183.38125 L 207.475,183.25625 L 206.50625,183.0375 L 205.44375,183.56875 L 205.4125,184.5375 L 204.31875,183.56875 L 203.81875,181.5375 L 202.1,180.1 L 199.975,179.85 L 198.225,179.56875 L 197.19375,180.2875 L 195.35,179.4125 L 194.225,179.6 L 194.1625,179.38125 L 194.1625,207.7875 L 194.6,207.81875 L 196.94375,209.725 L 196.94375,210.7875 L 197.6,210.56875 L 198.225,211.00625 L 199.50625,209.50625 L 202.06875,210.7875 L 203.75625,210.35 L 211.63125,214.63125 L 214.85,211.44375 L 217.38125,209.725 L 218.88125,209.725 L 219.31875,208.44375 L 217.81875,208.88125 L 216.975,208.225 L 218.0375,208.225 L 220.7875,206.1 L 222.06875,208.6625 L 220.7875,210.35 L 218.88125,209.94375 L 220.7875,211.63125 L 222.06875,210.7875 L 222.725,211.00625 L 222.9125,209.2875 L 224.4125,209.2875 L 224.85,210.56875 L 224.00625,210.7875 L 223.7875,212.06875 L 225.25625,213.13125 L 226.75625,212.9125 L 226.975,213.35 L 226.35,213.13125 L 227.4125,215.0375 L 228.25625,214.4125 L 229.1,214.85 L 228.88125,214.19375 L 229.75625,215.9125 L 230.81875,216.975 L 231.225,214.19375 L 229.94375,215.0375 L 229.5375,213.35 L 231.6625,213.35 L 234.19375,212.50625 L 238.25625,208.225 L 241.0375,206.5375 L 237.63125,208.00625 L 239.5375,206.75625 L 239.475,206.6625 L 238.9125,206.1 L 240.38125,206.5375 L 242.1,205.88125 L 241.88125,206.31875 L 251.25625,205.475 L 253.1625,203.75625 z "/>
        <path id="SA" class="mapRegion" d="M 194.1625,207.7875 L 194.1625,179.38125 L 194.1625,179.35 L 194.1625,134.2875 L 194.1625,117.35 L 173.4125,117.35 L 173.4125,117.35 L 113.85,117.35 L 113.85,156.31875 L 114.31875,156.06875 L 120.9125,155.4125 L 121.975,155.19375 L 126.25625,155.63125 L 128.6,154.35 L 132.63125,156.475 L 135.63125,158.81875 L 137.5375,158.81875 L 137.31875,158.4125 L 137.75625,158.19375 L 139.225,158.19375 L 141.7875,160.31875 L 144.35,160.31875 L 143.69375,159.69375 L 144.13125,159.475 L 144.56875,159.88125 L 144.975,159.25625 L 147.31875,161.6 L 146.69375,161.81875 L 146.69375,162.88125 L 147.975,162.225 L 148.81875,162.44375 L 149.6625,164.1625 L 149.0375,165.00625 L 149.25625,164.35 L 148.19375,164.35 L 148.6,165.225 L 148.19375,165.85 L 149.0375,166.06875 L 148.6,166.69375 L 149.88125,167.975 L 149.475,166.69375 L 150.1,167.975 L 150.725,167.56875 L 152.00625,168.4125 L 151.38125,167.7875 L 152.44375,167.975 L 152.00625,168.4125 L 153.2875,170.13125 L 153.2875,171.38125 L 155.63125,173.5375 L 156.9125,179.2875 L 157.13125,178.63125 L 157.35,179.2875 L 157.75625,179.475 L 156.9125,179.69375 L 156.475,178.85 L 156.69375,178.63125 L 155.85,178.4125 L 155.85,178.00625 L 155.19375,179.2875 L 156.06875,178.85 L 158.63125,182.0375 L 159.69375,181.4125 L 160.75625,182.69375 L 161.1625,180.35 L 159.69375,180.975 L 160.31875,180.5375 L 160.5375,178.85 L 161.38125,178.4125 L 161.81875,178.85 L 161.81875,177.35 L 165.00625,173.725 L 167.56875,172.44375 L 166.9125,172.6625 L 167.35,171.81875 L 167.7875,172.25625 L 169.25625,171.81875 L 170.75625,167.56875 L 172.0375,166.06875 L 172.88125,166.50625 L 172.88125,162.225 L 173.94375,164.56875 L 174.1625,166.50625 L 174.7875,167.13125 L 173.1,168.63125 L 174.38125,170.975 L 171.81875,173.5375 L 171.19375,175.44375 L 170.75625,175.6625 L 171.19375,176.94375 L 170.5375,178.19375 L 170.975,178.00625 L 171.19375,179.25625 L 170.75625,181.81875 L 170.31875,182.25625 L 167.7875,181.6 L 166.69375,184.81875 L 168.85,184.6 L 170.5375,183.31875 L 172.0375,183.94375 L 172.88125,183.5375 L 172.44375,183.1 L 173.50625,180.75625 L 173.725,178.63125 L 175.00625,175.6625 L 178.00625,180.81875 L 178.19375,181.19375 L 177.7875,181.4125 L 177.56875,180.75625 L 177.35,185.44375 L 175.00625,187.56875 L 178.00625,187.7875 L 179.25625,186.725 L 180.35,186.94375 L 183.5375,189.475 L 180.35,187.1625 L 183.1,189.2875 L 184.9125,191.63125 L 183.5375,189.50625 L 184.6,190.35 L 185.88125,193.13125 L 185.31875,192.25625 L 186.94375,196.5375 L 186.725,197.6 L 185.6625,198.6625 L 186.50625,199.94375 L 186.1,200.56875 L 187.7875,202.9125 L 190.25625,206.225 L 190.35,206.5375 L 191.63125,207.6 L 194.1625,207.7875 z " />
        <path id="TA" class="mapRegion" d="M 239.118,250.619 L 238.693,251.897 L 239.544,252.109 L 239.118,252.536 L 239.757,253.387 L 240.397,253.174 L 240.397,252.322 L 241.248,253.387 L 240.821,251.47 L 239.757,251.683 L 239.118,250.619 z M 243.377,238.692 L 242.952,237.415 L 243.59,235.711 L 242.952,235.073 L 243.59,233.368 L 241.887,231.239 L 240.821,231.026 L 240.397,232.304 L 239.118,231.665 L 237.627,233.368 L 236.563,232.729 L 235.498,233.582 L 234.646,233.156 L 233.156,233.794 L 234.22,234.86 L 234.006,235.285 L 232.729,233.794 L 231.666,234.646 L 231.876,235.499 L 231.452,234.433 L 229.536,234.86 L 224.637,231.877 L 223.359,231.877 L 222.932,230.813 L 222.932,231.665 L 222.082,231.452 L 222.082,231.877 L 219.1,230.387 L 219.314,232.09 L 218.674,233.368 L 219.525,236.989 L 221.017,239.119 L 220.59,239.544 L 222.721,242.313 L 222.721,244.229 L 223.359,243.59 L 224.424,245.507 L 224.849,245.507 L 224.424,246.998 L 224.211,245.721 L 222.294,244.016 L 222.932,247.85 L 223.572,248.063 L 224.637,251.257 L 225.702,251.683 L 226.766,254.026 L 227.406,254.026 L 226.979,253.813 L 227.406,252.96 L 227.832,254.239 L 229.536,254.239 L 229.322,254.665 L 227.832,254.239 L 227.832,254.877 L 227.406,254.665 L 228.044,256.369 L 229.536,255.729 L 231.876,256.156 L 231.666,255.517 L 232.516,257.007 L 233.793,257.007 L 234.646,255.729 L 234.006,255.09 L 234.86,255.304 L 235.073,254.452 L 234.433,254.239 L 235.286,253.813 L 234.433,252.749 L 234.646,252.322 L 234.646,252.96 L 235.073,253.387 L 235.286,252.749 L 235.286,253.387 L 236.136,253.813 L 236.35,251.47 L 236.99,251.683 L 236.99,250.406 L 235.923,248.702 L 237.414,250.619 L 237.84,250.406 L 237.414,251.683 L 238.267,251.044 L 238.053,249.98 L 238.693,249.767 L 237.627,249.128 L 238.693,249.34 L 239.118,250.406 L 239.97,250.193 L 241.035,248.276 L 240.397,247.211 L 241.248,246.785 L 241.46,245.082 L 240.821,245.294 L 241.887,243.165 L 242.525,243.165 L 241.887,242.952 L 242.738,241.674 L 242.313,242.952 L 243.377,243.377 L 243.377,244.656 L 243.804,244.016 L 243.165,242.526 L 243.377,238.692 z " />
      </g>
    </g>
</svg>